HIERARCHY
ROOT joint_0
{
	OFFSET 0.000000 0.000000 0.000000
	CHANNELS 6 Xposition Yposition Zposition Zrotation Yrotation Xrotation 
	JOINT joint_1
	{
		OFFSET 0.000000 0.000000 0.000000
		CHANNELS 3 Zrotation Yrotation Xrotation
		JOINT joint_2
		{
			OFFSET 3.811170 -8.520760 0.839290
			CHANNELS 3 Zrotation Yrotation Xrotation
			JOINT joint_3
			{
				OFFSET 2.562200 -7.039590 0.000000
				CHANNELS 3 Zrotation Yrotation Xrotation
				JOINT joint_4
				{
					OFFSET 0.157640 -0.433110 2.322550
					CHANNELS 3 Zrotation Yrotation Xrotation
					End Site
					{
						OFFSET 0.000000 0.000000 0.000000
					}
				}
			}
		}
	}
	JOINT joint_5
	{
		OFFSET 0.000000 0.000000 0.000000
		CHANNELS 3 Zrotation Yrotation Xrotation
		JOINT joint_6
		{
			OFFSET -3.848050 -8.780180 0.839290
			CHANNELS 3 Zrotation Yrotation Xrotation
			JOINT joint_7
			{
				OFFSET -2.568260 -7.056230 0.000000
				CHANNELS 3 Zrotation Yrotation Xrotation
				JOINT joint_8
				{
					OFFSET -0.164730 -0.452590 2.363150
					CHANNELS 3 Zrotation Yrotation Xrotation
					End Site
					{
						OFFSET 0.000000 0.000000 0.000000
					}
				}
			}
		}
	}
	JOINT joint_9
	{
		OFFSET 0.028270 2.035590 -0.193380
		CHANNELS 3 Zrotation Yrotation Xrotation
		JOINT joint_10
		{
			OFFSET 0.056720 2.048850 -0.042750
			CHANNELS 3 Zrotation Yrotation Xrotation
			JOINT joint_11
			{
				OFFSET -0.054170 1.746240 0.172020
				CHANNELS 3 Zrotation Yrotation Xrotation
				JOINT joint_12
				{
					OFFSET 0.104070 1.761360 -0.123970
					CHANNELS 3 Zrotation Yrotation Xrotation
					End Site
					{
						OFFSET 0.000000 0.000000 0.000000
					}
				}
			}
			JOINT joint_13
			{
				OFFSET 3.362410 1.200890 -0.311210
				CHANNELS 3 Zrotation Yrotation Xrotation
				JOINT joint_14
				{
					OFFSET 4.983000 -0.000000 -0.000000
					CHANNELS 3 Zrotation Yrotation Xrotation
					JOINT joint_15
					{
						OFFSET 3.483560 -0.000000 -0.000000
						CHANNELS 3 Zrotation Yrotation Xrotation
						JOINT joint_16
						{
							OFFSET 0.715260 -0.000000 -0.000000
							CHANNELS 3 Zrotation Yrotation Xrotation
							End Site
							{
								OFFSET 0.000000 0.000000 0.000000
							}
						}
					}
				}
			}
			JOINT joint_17
			{
				OFFSET -3.136600 1.374050 -0.404650
				CHANNELS 3 Zrotation Yrotation Xrotation
				JOINT joint_18
				{
					OFFSET -5.241900 -0.000000 -0.000000
					CHANNELS 3 Zrotation Yrotation Xrotation
					JOINT joint_19
					{
						OFFSET -3.444170 -0.000000 -0.000000
						CHANNELS 3 Zrotation Yrotation Xrotation
						JOINT joint_20
						{
							OFFSET -0.622530 -0.000000 -0.000000
							CHANNELS 3 Zrotation Yrotation Xrotation
							End Site
							{
								OFFSET 0.000000 0.000000 0.000000
							}
						}
					}
				}
			}
		}
	}
}
MOTION
Frames: 15
Frame Time: 0.031667
4.847296 15.567984 -2.364512 -5.013435 -25.555210 3.808602 -8.416041 12.043018 -24.145083 -4.924216 11.013602 24.837925 1.065388 6.274207 -9.781501 0.149205 -1.054019 -2.442400 5.743320 -3.781002 -2.063973 6.740690 -10.639483 21.061697 -1.087873 -4.301741 -8.992857 -0.006928 0.384323 -0.986596 1.297842 0.996277 -1.157838 -1.104709 -0.319649 -5.776657 2.690791 -0.549112 1.219043 0.419120 -0.266854 3.498225 -50.804071 -26.311509 17.210368 45.762404 -53.390453 -19.619526 1.328366 1.450314 1.260573 -6.897181 -0.247384 0.265203 84.667173 25.056161 41.749671 -58.788098 58.526518 -27.328876 -0.030061 -1.468359 1.151653 7.368744 -0.288757 0.283327 
4.817107 15.564921 -2.375835 -4.960369 -25.233309 3.832239 -7.306233 16.041313 -25.050799 -6.290487 11.205126 24.189568 1.395149 6.035571 -11.307841 -0.027955 -0.552754 -1.167625 2.770811 -6.306230 1.653378 8.593202 -9.885750 18.045865 -1.375202 -3.355235 -9.100429 0.196010 0.447325 -1.009398 0.971032 1.289464 -1.672705 -1.055780 -0.207846 -6.078217 2.118000 -0.104387 -0.091679 0.077312 -0.101648 3.032580 -47.574015 -27.753029 13.838603 46.755209 -54.974131 -19.610147 1.316720 1.556375 0.206200 -6.931385 -0.210573 0.225599 88.785762 26.524757 42.488983 -59.753920 60.399371 -26.482554 0.049320 -1.581256 0.325017 7.387031 -0.222394 0.224699 
4.786918 15.561857 -2.387158 -4.907456 -24.911741 3.856510 -7.113173 18.613245 -26.310886 -7.575263 11.978609 24.041112 1.895797 5.604680 -12.128991 -0.076405 -0.283786 -0.353925 0.563420 -7.992078 3.733048 10.196468 -9.849995 16.614930 -1.856575 -3.000102 -8.980106 0.346281 0.480644 -1.010912 0.758136 1.348081 -1.881812 -1.050143 -0.100536 -6.602772 1.683929 0.293209 -0.720083 -0.086250 -0.019721 2.907130 -45.526169 -28.424822 11.437126 47.923606 -56.490979 -19.458464 1.408052 2.241776 -0.770122 -6.898447 -0.254559 0.252892 92.315472 26.478309 41.389486 -58.488692 61.084693 -23.652650 -0.043211 -1.857045 -0.590966 7.434267 -0.257528 0.254166 
4.756367 15.558990 -2.397638 -4.866138 -24.549143 3.883723 -7.158685 19.884228 -27.265282 -8.835202 12.444737 23.990218 2.373217 5.550203 -12.959640 -0.029874 -0.232353 -0.073725 -1.013444 -8.438389 5.264075 11.866949 -10.082716 15.932392 -2.074282 -3.242036 -9.101856 0.496426 0.465146 -0.911605 0.571966 1.086737 -2.263714 -1.117631 -0.146766 -7.084367 1.500941 0.239784 -1.043617 -0.129958 -0.004701 2.744177 -43.451367 -29.733560 9.198950 49.985070 -58.380362 -19.370688 1.586663 2.627967 -0.628093 -6.841717 -0.305774 0.302190 94.406426 26.470241 41.579977 -60.339016 62.644797 -23.204487 0.093383 -2.100843 -0.443008 7.473276 -0.320233 0.311518 
4.725811 15.556126 -2.408110 -4.825040 -24.186731 3.911492 -7.235691 20.526187 -27.969432 -10.017733 12.972455 23.867922 2.770075 5.245370 -13.131158 0.021208 -0.306920 -0.213193 -2.335855 -8.696251 6.110951 13.229229 -10.510644 16.146480 -2.461339 -3.732859 -9.288863 0.573755 0.424877 -0.779888 0.565684 0.941262 -2.366131 -1.111221 -0.335734 -7.778396 1.255192 0.252334 -1.056955 -0.150027 0.062268 2.699407 -41.858781 -30.833392 7.664934 51.698482 -59.903791 -19.091335 1.692745 3.013431 -0.483103 -6.798550 -0.349727 0.343421 95.817130 26.327145 41.812818 -62.098988 64.020100 -22.227220 0.030913 -2.343668 -0.143154 7.506610 -0.369493 0.358213 
4.695186 15.553324 -2.417671 -4.793570 -23.777342 3.938570 -7.167916 20.981416 -28.722201 -11.236679 13.673327 23.874545 3.055620 4.929453 -13.261453 -0.000638 -0.306578 -0.278770 -3.810466 -8.714308 6.434862 14.426972 -11.350196 16.884298 -2.905272 -3.951078 -9.675723 0.612233 0.423691 -0.735271 0.508324 0.770757 -2.574484 -1.305022 -0.394817 -8.715840 0.845933 0.322495 -1.229481 -0.267702 0.162590 2.556379 -40.706467 -31.675360 6.694213 53.858337 -61.618532 -19.120179 1.807956 3.512300 -0.485045 -6.776466 -0.378706 0.365530 97.028624 26.177325 41.973264 -63.778229 65.245459 -20.905337 -0.035636 -2.488452 0.354850 7.515435 -0.399955 0.386192 
4.664560 15.550523 -2.427211 -4.762252 -23.367880 3.965985 -7.040953 21.679277 -28.996575 -12.534144 14.054447 23.837679 3.325759 4.616495 -13.794514 -0.026842 -0.192610 0.023832 -5.077221 -9.084372 7.270141 15.684407 -11.910759 17.778569 -3.262600 -3.953961 -10.240129 0.638404 0.422377 -0.719488 0.749754 0.601837 -2.805358 -1.374156 -0.472169 -9.446941 0.488012 0.190864 -1.760027 -0.563648 0.281764 2.115815 -39.751562 -32.296263 6.058197 55.958493 -63.242818 -18.715189 1.996481 4.011252 -0.218416 -6.735454 -0.423027 0.401258 98.211282 26.314322 42.320749 -64.367600 66.076844 -19.252335 -0.030465 -2.909275 0.697676 7.541567 -0.449233 0.429957 
4.634356 15.547652 -2.435450 -4.730384 -22.914324 3.990155 -7.031150 20.784386 -29.299930 -13.084177 14.204517 23.965059 3.315413 4.521535 -13.800688 0.023001 -0.245132 -0.114508 -5.359434 -8.874988 7.258889 16.174418 -12.192254 18.171577 -3.279851 -4.360806 -10.889922 0.630501 0.441359 -0.813605 0.615829 0.528610 -2.722527 -1.580513 -0.285905 -9.855363 0.495891 0.214757 -1.353231 -0.611392 0.416556 2.407067 -40.276735 -32.549653 6.688103 56.455918 -63.762201 -17.923799 2.054078 4.181659 -0.205324 -6.744630 -0.417194 0.386651 98.056114 26.289810 42.756541 -64.934763 66.483440 -17.629823 -0.034544 -2.824756 0.854384 7.549679 -0.434344 0.412148 
4.604167 15.544780 -2.443646 -4.698308 -22.460527 4.014283 -7.236868 19.959983 -29.371181 -13.326905 14.457946 24.056703 3.245388 4.465952 -13.405532 0.096819 -0.350297 -0.370003 -5.265709 -8.467436 7.080400 16.441479 -12.417074 18.260784 -3.284546 -4.777383 -11.369555 0.636234 0.393156 -0.735779 0.573908 0.460691 -2.639855 -1.681033 -0.245480 -10.008963 0.641181 0.193053 -0.814884 -0.531811 0.428016 2.627817 -41.443316 -32.449031 7.595386 56.221684 -63.978984 -16.922565 2.085491 4.259415 -0.500779 -6.749918 -0.406119 0.372456 97.592944 25.999547 42.967135 -64.971172 66.666164 -16.511520 0.012668 -2.562523 0.989693 7.553412 -0.416277 0.393624 
4.574755 15.541664 -2.450464 -4.659977 -21.971764 4.033286 -7.718361 19.314090 -29.392560 -13.555293 14.554540 24.118366 3.211180 4.292904 -13.168770 0.124832 -0.365270 -0.393826 -4.995874 -8.069842 6.912533 16.718403 -12.498768 18.013970 -3.193108 -5.037521 -11.747994 0.606102 0.355792 -0.666410 0.618161 0.349938 -2.392512 -1.813890 -0.260103 -10.128659 0.659903 -0.014850 -0.186316 -0.433005 0.366347 2.703430 -42.559670 -32.148572 8.348936 56.594053 -64.327129 -16.639078 2.087028 4.415857 -0.915132 -6.760451 -0.393993 0.357420 97.155716 25.857999 42.995528 -64.976520 66.812896 -15.690971 -0.058246 -2.437932 0.826804 7.551148 -0.400310 0.376927 
4.545377 15.538537 -2.457219 -4.621037 -21.482920 4.051727 -8.024414 18.960743 -29.574114 -13.944078 14.706293 24.102942 3.152969 4.155815 -13.016818 0.109979 -0.324140 -0.377313 -4.916815 -7.973851 6.833699 17.108556 -12.536844 17.887627 -3.255997 -5.223648 -12.247881 0.565148 0.374521 -0.692989 0.419000 0.403804 -2.254454 -1.953907 -0.163694 -10.265077 0.648956 -0.196380 0.038555 -0.417696 0.369958 2.825246 -43.516769 -31.768494 8.229412 56.902469 -64.676389 -16.327345 2.115159 4.631125 -1.163990 -6.774653 -0.372773 0.333961 97.172106 26.025011 43.005042 -65.046105 66.850760 -15.341199 -0.115645 -2.457603 0.735360 7.523662 -0.378651 0.354310 
4.516542 15.534935 -2.463170 -4.581652 -20.968489 4.067556 -8.123641 18.795692 -29.526661 -14.181812 14.766462 24.033110 3.172634 4.088153 -12.867685 0.124359 -0.353175 -0.390456 -4.798896 -8.137890 7.069886 17.423271 -12.617907 17.865817 -3.253782 -5.312405 -12.760074 0.588910 0.363583 -0.671217 0.516827 0.391363 -2.305631 -2.017606 -0.118369 -10.330450 0.560405 -0.200468 0.081560 -0.312947 0.391051 2.939729 -44.201147 -31.478163 7.866217 57.261453 -65.041212 -16.084880 2.114190 4.808196 -1.087767 -6.766346 -0.378369 0.338923 97.170647 26.339616 42.942707 -65.099544 66.875987 -14.971018 -0.119012 -2.553340 0.789601 7.533570 -0.383192 0.358495 
4.487737 15.531307 -2.469074 -4.541675 -20.454391 4.082503 -8.143376 18.857450 -29.511520 -14.443016 14.827527 23.987074 3.168286 4.125038 -12.817126 0.114039 -0.325271 -0.360451 -4.813991 -8.456946 7.542922 17.671629 -12.629943 17.848995 -3.342287 -5.380385 -13.413722 0.587839 0.353070 -0.625441 0.392775 0.408985 -2.470806 -2.066315 -0.068250 -10.303532 0.372759 -0.102957 -0.324269 -0.388469 0.488078 2.882033 -44.465360 -31.239825 7.055723 57.863423 -65.485782 -16.170654 2.094267 4.935129 -0.823696 -6.770983 -0.373755 0.333228 97.150617 26.774290 43.027447 -65.650694 66.980883 -15.138402 -0.134096 -2.695385 0.920898 7.525072 -0.378032 0.353234 
4.458851 15.527076 -2.475104 -4.513051 -19.916304 4.102259 -8.179585 18.685747 -29.634042 -14.494117 14.841325 24.076128 3.199939 4.002133 -12.693989 0.114873 -0.322109 -0.353642 -4.801993 -8.519580 7.758354 17.775882 -12.517889 17.591293 -3.358275 -5.513159 -13.951980 0.591641 0.352785 -0.624610 0.401937 0.415143 -2.473189 -2.102158 -0.033753 -10.244852 0.371847 -0.093333 -0.346847 -0.397329 0.505972 2.885830 -44.901865 -30.988390 6.773030 58.398332 -65.762486 -16.371971 2.093727 4.949859 -0.832584 -6.770024 -0.372707 0.332036 96.971161 27.132308 43.154982 -65.687220 66.928577 -15.170429 -0.127631 -2.685555 0.916590 7.524383 -0.376722 0.352022 
4.429958 15.522803 -2.481144 -4.484348 -19.378630 4.121274 -8.207233 18.479058 -29.768466 -14.551680 14.866667 24.201392 3.234383 3.879132 -12.579019 0.115870 -0.318844 -0.346520 -4.781788 -8.588781 7.981418 17.892870 -12.401780 17.319176 -3.373839 -5.662136 -14.515763 0.594835 0.352164 -0.623192 0.409959 0.419397 -2.476791 -2.140934 0.002706 -10.182476 0.371125 -0.085157 -0.373719 -0.404876 0.523995 2.888561 -45.344705 -30.706483 6.452329 58.951202 -66.060555 -16.579803 2.090225 4.962214 -0.839913 -6.769084 -0.371590 0.330762 96.759442 27.531461 43.288700 -65.695822 66.882562 -15.183808 -0.118149 -2.674673 0.912627 7.523698 -0.375318 0.350715 
